<svg height="480pt" viewBox="0 0 480 480" width="480pt" xmlns="http://www.w3.org/2000/svg"><path d="m456 240h-432c-13.253906 0-24 10.746094-24 24v104c0 4.417969 3.582031 8 8 8s8-3.582031 8-8v-104c0-4.417969 3.582031-8 8-8h432c4.417969 0 8 3.582031 8 8v192c0 4.417969-3.582031 8-8 8h-432c-4.417969 0-8-3.582031-8-8v-56c0-4.417969-3.582031-8-8-8s-8 3.582031-8 8v56c0 13.253906 10.746094 24 24 24h432c13.253906 0 24-10.746094 24-24v-192c0-13.253906-10.746094-24-24-24zm0 0"/><path d="m360 288c4.417969 0 8-3.582031 8-8s-3.582031-8-8-8h-320c-4.417969 0-8 3.582031-8 8v160c0 4.417969 3.582031 8 8 8h400c4.417969 0 8-3.582031 8-8v-160c0-4.417969-3.582031-8-8-8h-48c-4.417969 0-8 3.582031-8 8s3.582031 8 8 8h40v40h-40c-4.417969 0-8 3.582031-8 8v96h-34.160156l1.839844-1.039062c1.851562-1.054688 3.207031-2.808594 3.761718-4.863282.554688-2.058594.265625-4.253906-.800781-6.097656l-24-41.601562-32-55.359376c-1.058594-1.855468-2.816406-3.207031-4.878906-3.757812-1.945313-.492188-4-.234375-5.761719.71875l-16 9.039062v-17.039062c0-4.417969-3.582031-8-8-8h-48c-4.417969 0-8 3.582031-8 8h-56c-4.417969 0-8 3.582031-8 8v32h-16v-32c0-4.417969-3.582031-8-8-8h-48c-4.417969 0-8 3.582031-8 8v16c0 4.417969 3.582031 8 8 8s8-3.582031 8-8v-8h32v32h-40c-4.417969 0-8 3.582031-8 8v64h-16v-144zm-136 96h32v16h-32zm32-16h-32v-16h32zm-48 8h-48v-16h48zm0 16v32h-16v-8c0-4.417969-3.582031-8-8-8s-8 3.582031-8 8v8h-16v-32zm16 40v-16h32v16zm176-56h32v16h-32zm32-32v16h-32v-16zm-32 64h32v24h-32zm-128 24v-59.121094l34.160156 59.121094zm40.800781-52.480469-13.839843 8-8-13.839843 13.839843-8zm10.160157 49.519531-16-27.679687 13.839843-8 16 27.679687zm-34.160157-91.117187 8 13.839844-13.839843 8-8-13.839844zm-32.800781-17.921875v16h-32v-16zm-48 8v16h-48v-16zm-64 40v64h-16v-64zm-32 24h-32v-16h32zm-32 16h32v24h-32zm0 0"/><path d="m48 160h48v40c0 13.253906 10.746094 24 24 24s24-10.746094 24-24v-16c0-4.417969-3.582031-8-8-8s-8 3.582031-8 8v16c0 4.417969-3.582031 8-8 8s-8-3.582031-8-8v-40h256v40c0 4.417969-3.582031 8-8 8s-8-3.582031-8-8v-16c0-4.417969-3.582031-8-8-8s-8 3.582031-8 8v16c0 13.253906 10.746094 24 24 24s24-10.746094 24-24v-40h48c4.417969 0 8-3.582031 8-8s-3.582031-8-8-8h-384c-4.417969 0-8-3.582031-8-8v-8h408c4.417969 0 8-3.582031 8-8s-3.582031-8-8-8h-40v-104c0-4.417969-3.582031-8-8-8h-80c-4.417969 0-8 3.582031-8 8s3.582031 8 8 8h24v16h-16c0-4.417969-3.582031-8-8-8h-40v-16c0-4.417969-3.582031-8-8-8h-32c-4.417969 0-8 3.582031-8 8v80c0 4.417969 3.582031 8 8 8s8-3.582031 8-8v-24h16v48h-96v-32h32c4.417969 0 8-3.582031 8-8s-3.582031-8-8-8h-88c-4.417969 0-8-3.582031-8-8s3.582031-8 8-8h88c4.417969 0 8-3.582031 8-8s-3.582031-8-8-8h-88c-7.78125.023438-15.066406 3.8125-19.546875 10.171875-4.484375 6.355469-5.605469 14.492187-3.011719 21.828125h-1.441406c-17.671875 0-32 14.328125-32 32 .023438 5.640625 1.570312 11.167969 4.480469 16h-28.480469c-4.417969 0-8 3.582031-8 8v16c0 13.253906 10.746094 24 24 24zm280-80h16v32h-16zm64 0h-32v-16h32zm-32 32v-16h32v16zm32-64h-32v-32h32zm-48 0v16h-16v-16zm-32-8v32h-32v-32zm-64 8v-32h16v32zm32 40h32v24h-32zm-208 8c0-8.835938 7.164062-16 16-16h64v32h-64c-8.835938 0-16-7.164062-16-16zm0 0"/></svg>